<?xml version="1.0" encoding="UTF-8"?>
<svg width="293px" height="24px" viewBox="0 0 293 24" version="1.1" xmlns="http://www.w3.org/2000/svg" xmlns:xlink="http://www.w3.org/1999/xlink">
    <title>LOGO WHITE</title>
    <g id="Page-1" stroke="none" stroke-width="1" fill="none" fill-rule="evenodd">
        <g id="01-DESKTOP---Home" transform="translate(-191.000000, -110.000000)" fill="#FFFFFF">
            <g id="LOGO-WHITE" transform="translate(191.000000, 110.000000)">
                <path d="M14.3001429,6.45238336 C13.6187143,5.93057383 12.9381429,5.54356846 12.2571429,5.29177209 C11.5761429,5.04078535 10.9165714,4.91488716 10.278,4.91488716 C9.46928571,4.91488716 8.80971429,5.09543568 8.29928571,5.45774719 C7.78842857,5.81924906 7.533,6.2920757 7.533,6.87420302 C7.533,7.27659144 7.66071429,7.60854165 7.91614286,7.86964882 C8.17157143,8.13116081 8.50628571,8.35704888 8.92157143,8.54771784 C9.33642857,8.73919644 9.80442857,8.90517154 10.3264286,9.04564315 C10.8471429,9.18651958 11.3635714,9.33670681 11.8744286,9.49782411 C13.917,10.1410788 15.4118571,11.000506 16.3585714,12.075296 C17.3057143,13.1504908 17.7792857,14.5531829 17.7792857,16.2817529 C17.7792857,17.4480316 17.5718571,18.5029855 17.157,19.4478292 C16.7417143,20.392268 16.1352857,21.201093 15.3372857,21.8743042 C14.5397143,22.5483251 13.56,23.0709442 12.4007143,23.4421617 C11.241,23.8141888 9.927,24 8.45914286,24 C5.41542857,24 2.59585714,23.1462403 0,21.4375063 L2.68114286,16.673616 C3.61714286,17.4577472 4.54285714,18.0406841 5.45828571,18.4220221 C6.37285714,18.8037648 7.278,18.9952434 8.17157143,18.9952434 C9.19285714,18.9952434 9.95314286,18.774618 10.4537143,18.3321526 C10.9534286,17.8892825 11.2037143,17.387309 11.2037143,16.8250177 C11.2037143,16.4829471 11.1398571,16.1866208 11.0125714,15.9348244 C10.8844286,15.6838377 10.6714286,15.4522822 10.3735714,15.2409675 C10.0757143,15.0304625 9.68742857,14.8341261 9.20871429,14.6531728 C8.73,14.4726242 8.15014286,14.2722397 7.46914286,14.0503998 C6.66042857,13.8091286 5.86757143,13.5431636 5.091,13.2512904 C4.31442857,12.9602267 3.62271429,12.5736262 3.01628571,12.0906791 C2.40985714,11.6081368 1.92,11.000506 1.54842857,10.2665722 C1.17557143,9.53304321 0.989142857,8.60317782 0.989142857,7.47778565 C0.989142857,6.35239348 1.18585714,5.33265864 1.57971429,4.41736666 C1.97357143,3.50288432 2.52685714,2.71875316 3.23957143,2.06618763 C3.95228571,1.41240765 4.82485714,0.904361907 5.85728571,0.542860034 C6.88928571,0.181762979 8.04342857,0 9.32057143,0 C10.512,0 11.757,0.156259488 13.0555714,0.467968829 C14.3528571,0.779273353 15.5974286,1.23671693 16.7901429,1.83948993 L14.3001429,6.45238336 Z" id="Fill-1"></path>
                <path d="M30.8922857,11.0125541 L32.9674286,11.0125541 C35.2654286,11.0125541 36.4144286,10.0159197 36.4144286,8.02051392 C36.4144286,6.02681767 35.2654286,5.02890112 32.9674286,5.02890112 L30.8922857,5.02890112 L30.8922857,11.0125541 Z M30.8922857,24 L24.6364286,24 L24.6364286,0 L34.5951429,0 C37.2972857,0 39.3668571,0.700037395 40.8034286,2.10053956 C42.24,3.50104172 42.9578571,5.47422405 42.9578571,8.02051392 C42.9578571,10.5668038 42.24,12.5408409 40.8034286,13.941343 C39.3668571,15.3418452 37.2972857,16.04231 34.5951429,16.04231 L30.8922857,16.04231 L30.8922857,24 Z" id="Fill-4"></path>
                <polygon id="Fill-6" points="46.3864286 24 59.0292857 0 71.6721429 24"></polygon>
                <polygon id="Fill-6" points="109.890857 24 122.533714 0 135.176571 24"></polygon>
                <polygon id="Fill-12" points="146.575286 0 146.575286 18.715957 154.076571 18.715957 154.076571 24 140.319429 24 140.319429 0"></polygon>
                <path d="M188.947714,6.45238336 C188.266286,5.93057383 187.585714,5.54356846 186.904714,5.29177209 C186.224143,5.04078535 185.564143,4.91488716 184.925571,4.91488716 C184.117286,4.91488716 183.457714,5.09543568 182.946857,5.45774719 C182.436,5.81924906 182.181,6.2920757 182.181,6.87420302 C182.181,7.27659144 182.308286,7.60854165 182.563714,7.86964882 C182.819143,8.13116081 183.154286,8.35704888 183.569571,8.54771784 C183.984429,8.73919644 184.452429,8.90517154 184.974,9.04564315 C185.495143,9.18651958 186.011143,9.33670681 186.522,9.49782411 C188.564571,10.1410788 190.059857,11.000506 191.006571,12.075296 C191.953286,13.1504908 192.426857,14.5531829 192.426857,16.2817529 C192.426857,17.4480316 192.219857,18.5029855 191.805,19.4478292 C191.389714,20.392268 190.782857,21.201093 189.985286,21.8743042 C189.187286,22.5483251 188.208,23.0709442 187.048286,23.4421617 C185.888571,23.8141888 184.575,24 183.106714,24 C180.063429,24 177.243857,23.1462403 174.648,21.4375063 L177.329143,16.673616 C178.265143,17.4577472 179.190429,18.0406841 180.105857,18.4220221 C181.020857,18.8037648 181.925571,18.9952434 182.819143,18.9952434 C183.840429,18.9952434 184.601143,18.774618 185.101286,18.3321526 C185.601,17.8892825 185.851286,17.387309 185.851286,16.8250177 C185.851286,16.4829471 185.787857,16.1866208 185.660143,15.9348244 C185.532429,15.6838377 185.319429,15.4522822 185.021571,15.2409675 C184.723286,15.0304625 184.335429,14.8341261 183.856286,14.6531728 C183.377571,14.4726242 182.797714,14.2722397 182.117143,14.0503998 C181.308429,13.8091286 180.515571,13.5431636 179.739,13.2512904 C178.962,12.9602267 178.270714,12.5736262 177.664286,12.0906791 C177.057857,11.6081368 176.568,11.000506 176.196,10.2665722 C175.823571,9.53304321 175.637143,8.60317782 175.637143,7.47778565 C175.637143,6.35239348 175.833429,5.33265864 176.227714,4.41736666 C176.621143,3.50288432 177.174429,2.71875316 177.887571,2.06618763 C178.599857,1.41240765 179.472857,0.904361907 180.505286,0.542860034 C181.536857,0.181762979 182.691429,0 183.968143,0 C185.159571,0 186.404571,0.156259488 187.703143,0.467968829 C189.000857,0.779273353 190.245429,1.23671693 191.437714,1.83948993 L188.947714,6.45238336 Z" id="Fill-13"></path>
                <path d="M234.255,0 L234.255,12.6968815 C234.255,13.3779626 234.281143,14.0744283 234.335143,14.7871102 C234.387857,15.4993763 234.546857,16.1446985 234.813857,16.7222453 C235.079571,17.3006237 235.499143,17.770894 236.074286,18.1313929 C236.648571,18.4931393 237.457286,18.6740125 238.500429,18.6740125 C239.542286,18.6740125 240.345857,18.4931393 240.909857,18.1313929 C241.473857,17.770894 241.893857,17.3006237 242.171143,16.7222453 C242.447143,16.1446985 242.612571,15.4993763 242.665286,14.7871102 C242.718,14.0744283 242.745,13.3779626 242.745,12.6968815 L242.745,0 L248.969571,0 L248.969571,13.5326403 C248.969571,17.1671518 248.112429,19.8199584 246.399857,21.4914761 C244.687286,23.1638254 242.053714,24 238.500429,24 C234.945857,24 232.307571,23.1638254 230.583857,21.4914761 C228.860571,19.8199584 227.998286,17.1671518 227.998286,13.5326403 L227.998286,0 L234.255,0 Z" id="Fill-14"></path>
                <polygon id="Fill-15" points="292.423286 5.28361558 284.986286 5.28361558 284.986286 9.29408622 292.008429 9.29408622 292.008429 14.5777018 284.986286 14.5777018 284.986286 18.7163844 292.423286 18.7163844 292.423286 24 278.729571 24 278.729571 0 292.423286 0"></polygon>
                <path d="M270.158143,24 C263.189571,24 257.541,18.6273098 257.541,12 C257.541,5.37269022 263.189571,0 270.158143,0" id="Fill-18"></path>
                <polyline id="Fill-17" points="204.275777 24 197.569714 24 209.766434 0 222.855429 24 216.148935 24"></polyline>
                <polygon id="Fill-8" points="86.496 5.28361558 86.496 24 80.2392857 24 80.2392857 5.28361558 75.1007143 5.28361558 75.1007143 0 91.635 0 91.635 5.28361558"></polygon>
                <polygon id="Fill-10" points="98.4921429 24 104.748 24 104.748 0 98.4921429 0"></polygon>
            </g>
        </g>
    </g>
</svg>